<svg version="1.1" id="Layer_1" xmlns="http://www.w3.org/2000/svg" x="0" y="0" viewBox="0 0 308.9 297.6" style="enable-background:new 0 0 308.9 297.6" xml:space="preserve"><style>.st1{fill:#0095da}</style><g id="Layer_1-2"><path d="M216.4 0H70.5C72.7 45.6 40.8 74.1 0 80.8c9.8 102.6 62.9 178.6 154.9 216.7C227.8 267 287 208.6 305 126.6 321.4 51.5 285.3 0 216.4 0z" style="fill:#fff"/><path class="st1" d="M216.4 0H70.5C72.7 45.6 40.8 74.1 0 80.8c9.8 102.6 62.9 178.6 154.9 216.7C227.8 267 287 208.6 305 126.6 321.4 51.5 285.3 0 216.4 0zm77.7 124.2c-15.5 72.5-67.9 130.6-139.2 161.3-83.7-35.9-132.1-107.1-142.6-196C49.8 79.8 79 51.7 81.6 10.9H217c66.2-.4 90.9 51.8 77.1 113.3z"/><path class="st1" d="M146.8 177.2h16.1l-7.5-36.3z"/><path class="st1" d="M216.9 20.9H90.3c-5.9 37-32.3 63.7-67 75.6 11.9 81.9 58 145.5 131.8 178.2 64.9-29.5 114.2-82 129.5-152.7 11.9-54.8-7.8-101.4-67.7-101.1zM44.7 104.7h78.1l37-41.3-15.8-5.7c-1.7-.7-1.6-2.4 0-2.4h17.3l5.4-18c.3-1.2 1.9-.9 1.9 0l1.7 18h16.6c1.2 0 1.7 1.5-.5 2.4l-17.6 6-27.6 41h9.1c-.9 3.3-1.9 7.3-3.1 11.9l-14.5 1-1.6 2.4c-4.1 5-14.2 17.6-20.2 19-3.8.9-7.6-2.9-6-7.8 1.4-4.7 5.2-8.6 7.4-12.8l-67.9-8.6c-3.1 0-2.8-5.1.3-5.1zm195.4 57.8c-5.2 0-5.4 2.1-5.4 7.3V194c0 5.4.4 7.2 5.4 7.2v4.8H219v-4.8c4.8 0 5.5-1.7 5.5-7.2v-18.8L207.4 196v.9c0 2.9 1.6 4.1 5.5 4.1v4.8h-52.5V201c3.8 0 6.2-.4 6.2-4 0-2.2-1-8.1-2.6-14.5h-19l-2.4 9.7c-1.7 6.4-1.2 8.8 5.7 8.8v4.8h-43.7V201c5.2 0 5.7-1.7 5.7-7.3v-22.4l-13.3 33-13.5-34v24c0 4.7.5 6.7 5.7 6.7v4.8H73.1V201c5.5 0 5.7-3.3 5.7-7.9v-23.4c0-4.1 0-7.3-5.3-7.3v-4.8h17.3l9.3 24.9 9.3-24.9H126v4.8c-5.2 0-5.3 2.1-5.3 7.3v24.2c0 4.7.5 6 1.9 6.6 3.1 1.2 9.2.9 10.9-2.6 1.6-3.4 2.9-7 3.8-10.7l22.4-88 20.2 86.4c2.2 9.3 3.5 11.7 5.5 13.6 2.1 1.7 8.6 3.1 11.1.5.5-.5.9-1.6.9-5.7v-24.2c0-5.5-.4-7.3-5.5-7.3v-4.8h21.2v4.8c-5.2 0-5.5 2.2-5.5 7.3v19l17.1-20.9v-.9c0-2.2-1.4-4.5-5.5-4.5v-4.8h21.1v4.8h-.2zm-2.1-52.7-67 5-2.4-10.2H238c3.6.1 3.8 5.1 0 5.2z"/></g></svg>