<svg width="276" height="100" fill="none" xmlns="http://www.w3.org/2000/svg"><path fill-rule="evenodd" clip-rule="evenodd" d="M74.2 0H25.1C24 14.9 13.6 25 0 28.6A85.1 85.1 0 0 0 51.8 100a84 84 0 0 0 50.5-58.7c5-22.4-4-41.4-28-41.3Zm24.6 40.5a79.9 79.9 0 0 1-47 55.6A81 81 0 0 1 4 31 35 35 0 0 0 28.3 3.7h46c21.7 0 28.9 16.9 24.5 36.9Z" fill="#fff"/><path d="M82 36c.5.1 1-.3 1-.8s-.4-1-1-1H56.6l1 3.7L81.8 36ZM46.8 34.2l10-15 6.4-2.2c.8-.2.6-.8.2-.8h-6l-.7-6.5c0-.3-.1-.4-.4-.4-.2 0-.3.1-.3.4l-2 6.5h-6.2c-.6 0-.6.6 0 .9l5.7 2L40 34.3H11.8c-1.2 0-1.3 2 0 2l24.6 3.1c-.9 1.6-2.2 3-2.7 4.7-.6 1.7.8 3.1 2.2 2.8 2.2-.5 5.8-5 7.3-7l.6-.8 5.3-.4 1-4.4h-3.3Z" fill="#fff"/><path fill-rule="evenodd" clip-rule="evenodd" d="M54.6 60.6 52 47.3l-3.2 13.3h5.8Zm16.2 4.1 6.2-7.6V57c0-.9-.5-1.7-2-1.7v-1.7h7.7v1.7c-2 0-2 .8-2 2.7v8.7c0 2 .2 2.7 2 2.7V71H75v-1.7c1.8 0 2-.7 2-2.7v-6.8l-6.2 7.6v.3c0 1 .6 1.6 2 1.6V71h-19v-1.7c1.3 0 2.2-.1 2.2-1.5 0-.9-.3-3-1-5.3h-6.8l-.9 3.6c-.6 2.3-.4 3.2 2 3.2V71H33.5v-1.7c1.9 0 2-.7 2-2.7v-8.2l-4.7 12-5-12.4v8.8c0 1.7.3 2.5 2.1 2.5V71H22v-1.7c2 0 2.1-1.2 2.1-3V58c0-1.6 0-2.7-1.9-2.7v-1.7h6.3l3.4 9 3.4-9h6v1.7c-1.9 0-2 .8-2 2.7v8.7c0 1.7.2 2.3.8 2.4 1.1.4 3.3.3 3.9-1 .6-1.2 1-2.5 1.4-3.8l8.1-32 7.3 31.4c.8 3.4 1.3 4.2 2 5 .8.6 3.2 1 4 .1.3-.2.4-.6.4-2v-8.9c0-2-.2-2.6-2-2.6v-1.8h7.7v1.8c-2 0-2 .8-2 2.6v7Z" fill="#fff"/><path d="M129.5 21.3h3.4c0 1.3-.3 2.4-.7 3.3-.5.8-1.2 1.5-2 2-1 .4-2 .6-3.2.6-1 0-1.8-.1-2.5-.4a5 5 0 0 1-1.9-1.4c-.5-.7-.9-1.4-1.1-2.3-.3-1-.4-2-.4-3.2V17c0-1.2.1-2.2.4-3.1.3-1 .7-1.7 1.2-2.3a5 5 0 0 1 1.9-1.4c.7-.3 1.5-.5 2.5-.5 1.2 0 2.3.2 3 .7 1 .5 1.6 1.1 2 2 .5 1 .8 2 .9 3.3h-3.5c0-.8 0-1.4-.2-1.9s-.4-.8-.8-1a3 3 0 0 0-1.4-.3c-.5 0-.9.1-1.2.3-.3.1-.6.4-.8.7a4 4 0 0 0-.5 1.4l-.1 2.1v3l.1 2 .4 1.4.8.8 1.2.2c.6 0 1 0 1.4-.3.4-.1.7-.4.8-.9.2-.4.3-1 .3-1.9Zm12-11.4V27h-3.4V10h3.4Zm4.3 0v2.9h-11.9V9.9h11.9Zm6.4 10.9 3.2-10.9h3.7l-4.7 13.8-.6 1.3c-.2.5-.5.8-.8 1.2l-1 .8c-.5.2-1 .2-1.6.2a15.7 15.7 0 0 1-1 0l-.1-2.8h.7c.4 0 .7 0 .9-.2l.4-.5.3-.9.6-2Zm-1.6-10.9 2.8 8.3 1 4h-2.6L147 10h3.7Zm22.3 0V27h-3.4V12.8h-5V27H161V10h12Zm6 10.8 5.4-10.8h3.2V27h-3.3V16.3L179 27h-3.3V10h3.3v10.7Zm20.8-3.8v2.8h-7v-2.8h7Zm-6-7V27h-3.4V10h3.4Zm8.5 0V27h-3.4V10h3.4Zm11 11.4h3.4c0 1.3-.3 2.4-.8 3.3-.5.8-1.1 1.5-2 2-.9.4-1.9.6-3.1.6-1 0-1.8-.1-2.5-.4a5 5 0 0 1-2-1.4c-.4-.7-.8-1.4-1-2.3-.3-1-.5-2-.5-3.2V17c0-1.2.2-2.2.4-3.1.3-1 .7-1.7 1.2-2.3a5 5 0 0 1 2-1.4c.7-.3 1.5-.5 2.4-.5 1.3 0 2.3.2 3.1.7.9.5 1.5 1.1 2 2 .4 1 .7 2 .8 3.3h-3.4c0-.8-.1-1.4-.3-1.9-.2-.5-.4-.8-.7-1a3 3 0 0 0-1.5-.3c-.4 0-.8.1-1.1.3-.4.1-.6.4-.9.7l-.4 1.4-.2 2.1v3c0 .7 0 1.4.2 2 0 .5.2 1 .4 1.4l.7.8 1.3.2c.6 0 1 0 1.4-.3.3-.1.6-.4.8-.9l.3-1.9Zm9-11.4V27h-3.5V10h3.5Zm8.3 0L225.2 20h-3.8l-.5-3.2h2.4l3-6.9h4.2ZM226.9 27l-3.5-7.6 2.3-2.6L231 27h-4.1Zm8.6-6.3 5.3-10.8h3.3V27h-3.3V16.3L235.4 27H232V10h3.4v10.7Zm14.5 0 5.4-10.8h3.2V27h-3.3V16.3L250 27h-3.3V10h3.3v10.7Zm4.3-15.3h2.4c0 .7-.1 1.3-.5 1.9-.3.5-.8.9-1.4 1.2-.6.3-1.3.4-2.1.4-1.3 0-2.3-.3-3-1-.7-.6-1-1.4-1-2.5h2.3c0 .4.1.8.4 1.1.2.3.7.5 1.3.5.6 0 1-.2 1.2-.5.3-.3.4-.7.4-1ZM127 41.4h3.6c.8 0 1.6.2 2.3.6.8.3 1.4.8 2 1.4.5.6.9 1.4 1.2 2.2.3 1 .4 1.9.4 3 0 1-.1 2-.4 2.8-.3.9-.7 1.6-1.3 2.2a5.5 5.5 0 0 1-4.2 2H127c-.8 0-1.6-.2-2.3-.6-.7-.3-1.4-.8-2-1.4-.5-.6-.9-1.3-1.2-2.2-.3-.8-.4-1.8-.4-2.8 0-1 .1-2 .4-3 .3-.8.7-1.6 1.3-2.2.5-.6 1.2-1.1 1.9-1.4.7-.4 1.5-.5 2.3-.5Zm0 3c-.5 0-1 .1-1.4.5a3 3 0 0 0-1 1.4c-.2.6-.3 1.4-.3 2.3 0 .6 0 1.2.2 1.7.1.5.3 1 .6 1.3.2.3.5.6.8.7.3.2.7.3 1.1.3h3.6c.6 0 1-.2 1.4-.5a3 3 0 0 0 1-1.3c.2-.6.3-1.4.3-2.2 0-.7 0-1.3-.2-1.9l-.5-1.3-.9-.8-1-.2h-3.7Zm3.5-5.2v18.5H127V39.2h3.3Zm11.5 11.5 5.3-10.8h3.3V57h-3.3V46.3L141.9 57h-3.3V40h3.3v10.7ZM163 40v2.9h-7v-2.9h7Zm2.5 0V57H162V40h3.4Zm-9.9 0h3.4l-.3 8.6c0 1.3-.2 2.4-.3 3.4l-.7 2.4c-.2.6-.6 1.2-1 1.6-.3.4-.8.7-1.3.8-.5.2-1.1.3-1.7.3h-.9v-2.8h.4l.8-.4c.3-.1.5-.4.6-.7.2-.3.3-.7.4-1.3l.3-1.8.1-2.6.2-7.5Zm16 10.8 5.3-10.8h3.2V57h-3.3V46.3L171.4 57h-3.3V40h3.3v10.7Zm17.7-7.7-3.7 14h-3.6l5.3-17h2.3l-.3 3Zm2.8 14-3.6-14-.4-3h2.3l5.4 17H192Zm.2-6.4v2.9h-7.7v-2.9h7.7ZM207 40v2.9h-7v-2.9h7Zm2.5 0V57H206V40h3.4Zm-10 0h3.5l-.4 8.6c0 1.3-.1 2.4-.3 3.4-.1 1-.3 1.7-.6 2.4-.3.6-.6 1.2-1 1.6-.4.4-.8.7-1.3.8-.6.2-1.1.3-1.8.3h-.8v-2.8h.4l.8-.4.6-.7c.2-.3.3-.7.4-1.3l.2-1.8.2-2.6.2-7.5Z" fill="#fff"/></svg>